<?xml version="1.0" standalone="no"?>
<!DOCTYPE svg PUBLIC "-//W3C//DTD SVG 20010904//EN"
 "http://www.w3.org/TR/2001/REC-SVG-20010904/DTD/svg10.dtd">
<svg version="1.0" xmlns="http://www.w3.org/2000/svg"
 width="270.000000pt" height="270.000000pt" viewBox="0 0 270.000000 270.000000"
 preserveAspectRatio="xMidYMid meet">
<metadata>
Created by potrace 1.11, written by Peter Selinger 2001-2013
</metadata>
<g transform="translate(0.000000,270.000000) scale(0.100000,-0.100000)"
fill="#000000" stroke="none">
<path d="M1319 2178 c-144 -216 -263 -398 -266 -404 -2 -6 6 -14 19 -16 13 -3
31 -9 40 -13 14 -5 66 67 278 385 144 215 264 398 266 405 3 7 -4 15 -18 17
-13 3 -31 9 -40 13 -14 5 -66 -67 -279 -387z"/>
<path d="M433 2357 l-333 -140 0 -62 0 -63 70 -33 70 -33 0 -323 c0 -219 -3
-323 -11 -323 -5 0 -17 -16 -25 -35 -29 -71 -10 -115 51 -115 50 0 69 24 61
79 -3 25 -15 53 -26 63 -19 18 -20 32 -20 328 0 171 2 310 4 310 3 0 51 -22
108 -48 57 -27 118 -54 136 -61 17 -8 32 -16 33 -20 0 -3 2 -15 4 -26 2 -11 7
-58 10 -105 3 -47 8 -100 11 -118 10 -79 75 -155 143 -168 27 -6 30 -9 17 -16
-9 -5 -16 -16 -16 -23 0 -8 -4 -15 -10 -15 -18 0 -11 -30 8 -31 74 -4 107 -10
114 -21 4 -7 8 -10 8 -6 0 23 230 -90 230 -113 0 -6 4 -8 8 -5 4 2 14 -4 20
-15 13 -20 12 -20 -15 -2 -15 10 -30 20 -33 23 -9 9 -80 40 -93 40 -7 0 -25 7
-40 15 -18 9 -25 10 -20 2 4 -7 -1 -5 -12 3 -14 12 -47 15 -142 15 -99 0 -126
-3 -133 -15 -5 -8 -10 -12 -10 -8 0 4 -28 -3 -61 -14 -67 -22 -179 -92 -179
-110 0 -6 -3 -9 -6 -6 -6 6 -65 -57 -101 -109 -41 -58 -83 -156 -94 -221 -15
-86 1 -302 22 -302 5 0 9 -8 10 -17 1 -54 84 -174 166 -243 30 -25 60 -50 67
-57 8 -7 16 -9 20 -6 3 4 6 1 6 -5 0 -7 7 -12 15 -12 9 0 26 -6 38 -14 12 -8
31 -16 42 -18 11 -2 22 -6 25 -10 15 -19 120 -23 770 -25 587 -2 709 0 732 11
15 8 29 12 32 9 7 -7 113 36 148 59 14 10 29 18 32 18 11 0 146 131 146 141 0
3 11 19 25 35 14 16 26 32 26 37 3 14 6 22 19 52 7 17 20 46 28 65 29 66 24
278 -8 355 -5 11 -17 40 -28 65 -20 47 -92 161 -92 146 0 -5 -13 7 -29 27 -15
20 -31 34 -35 30 -3 -3 -6 -1 -6 5 0 6 -18 21 -40 33 -22 13 -40 27 -40 31 0
5 -5 6 -10 3 -6 -3 -10 -2 -10 3 0 4 -26 16 -57 26 -32 10 -64 23 -72 30 -12
9 -13 8 -6 -4 6 -12 5 -13 -6 -2 -7 6 -23 12 -34 12 -21 0 -45 34 -45 64 0 8
-7 19 -15 26 -8 7 -12 16 -9 21 3 5 0 9 -6 9 -25 0 -2 23 35 36 51 17 111 80
124 130 6 22 13 86 17 143 8 137 13 161 34 161 8 0 70 29 323 148 l97 46 0 62
c0 40 -4 64 -12 67 -70 28 -645 270 -651 274 -4 3 -7 -21 -5 -52 l3 -56 210
-88 c116 -48 243 -100 284 -116 l73 -29 -63 -31 c-35 -17 -98 -46 -139 -64
-41 -19 -111 -51 -155 -72 -44 -20 -110 -51 -147 -67 l-68 -31 0 -56 0 -55 50
25 c27 14 52 25 55 25 12 0 -7 -194 -21 -222 -8 -16 -26 -33 -39 -38 -30 -12
-176 -40 -239 -46 -28 -3 -53 -7 -56 -9 -10 -6 -206 -18 -305 -18 -176 -1
-390 20 -578 57 -75 14 -115 43 -121 87 -3 13 -7 61 -11 107 l-6 83 50 -26 51
-25 0 55 0 55 -77 36 c-78 37 -299 138 -426 197 l-68 31 128 53 c70 29 137 57
148 62 11 5 79 33 150 62 72 28 134 55 138 59 5 4 7 30 5 57 l-3 50 -332 -140z"/>
</g>
</svg>
